HIERARCHY
ROOT Hips
{
	OFFSET -3.958830 18.904000 13.208200
	CHANNELS 6 Xposition Yposition Zposition Zrotation Yrotation Xrotation 
	JOINT LHipJoint
	{
		OFFSET 0.000000 0.000000 0.000000
		CHANNELS 3 Zrotation Yrotation Xrotation
		JOINT LeftUpLeg
		{
			OFFSET 1.800000 -1.400000 0.085000
			CHANNELS 3 Zrotation Yrotation Xrotation
			JOINT LeftLeg
			{
				OFFSET 2.215000 -6.000000 0.000000
				CHANNELS 3 Zrotation Yrotation Xrotation
				JOINT LeftFoot
				{
					OFFSET 2.500000 -6.900000 0.000000
					CHANNELS 3 Zrotation Yrotation Xrotation
					JOINT LeftToeBase
					{
						OFFSET 0.200000 -0.500000 1.950000
						CHANNELS 3 Zrotation Yrotation Xrotation
						End Site
						{
							OFFSET 0.000000 0.000000 0.000000
						}
					}
				}
			}
		}
	}
	JOINT RHipJoint
	{
		OFFSET 0.000000 0.000000 0.000000
		CHANNELS 3 Zrotation Yrotation Xrotation
		JOINT RightUpLeg
		{
			OFFSET -1.800000 -1.400000 0.085000
			CHANNELS 3 Zrotation Yrotation Xrotation
			JOINT RightLeg
			{
				OFFSET -2.215000 -6.000000 0.000000
				CHANNELS 3 Zrotation Yrotation Xrotation
				JOINT RightFoot
				{
					OFFSET -2.500000 -6.900000 0.000000
					CHANNELS 3 Zrotation Yrotation Xrotation
					JOINT RightToeBase
					{
						OFFSET -0.200000 -0.500000 1.950000
						CHANNELS 3 Zrotation Yrotation Xrotation
						End Site
						{
							OFFSET 0.000000 0.000000 0.000000
						}
					}
				}
			}
		}
	}
	JOINT LowerBack
	{
		OFFSET 0.000000 0.000000 0.000000
		CHANNELS 3 Zrotation Yrotation Xrotation
		JOINT Spine
		{
			OFFSET -0.087000 1.940000 -0.288900
			CHANNELS 3 Zrotation Yrotation Xrotation
			JOINT Spine1
			{
				OFFSET 0.000000 1.950000 0.060000
				CHANNELS 3 Zrotation Yrotation Xrotation
				JOINT Neck
				{
					OFFSET 0.000000 0.000000 0.000000
					CHANNELS 3 Zrotation Yrotation Xrotation
					JOINT Neck1
					{
						OFFSET 0.000000 1.600000 0.340000
						CHANNELS 3 Zrotation Yrotation Xrotation
						JOINT Head
						{
							OFFSET 0.000000 1.667000 -0.240000
							CHANNELS 3 Zrotation Yrotation Xrotation
							End Site
							{
								OFFSET 0.000000 0.000000 0.000000
							}
						}
					}
				}
				JOINT LeftShoulder
				{
					OFFSET 0.000000 0.000000 0.000000
					CHANNELS 3 Zrotation Yrotation Xrotation
					JOINT LeftArm
					{
						OFFSET 2.700000 1.550000 -0.730000
						CHANNELS 3 Zrotation Yrotation Xrotation
						JOINT LeftForeArm
						{
							OFFSET 5.450000 0.000000 0.000000
							CHANNELS 3 Zrotation Yrotation Xrotation
							JOINT LeftHand
							{
								OFFSET 3.450000 0.000000 0.000000
								CHANNELS 3 Zrotation Yrotation Xrotation
								JOINT LeftHandIndex1
								{
									OFFSET 0.750000 0.000000 0.000000
									CHANNELS 3 Zrotation Yrotation Xrotation
									End Site
									{
										OFFSET 0.000000 0.000000 0.000000
									}
								}
							}
						}
					}
				}
				JOINT RightShoulder
				{
					OFFSET 0.000000 0.000000 0.000000
					CHANNELS 3 Zrotation Yrotation Xrotation
					JOINT RightArm
					{
						OFFSET -2.700000 1.550000 -0.730000
						CHANNELS 3 Zrotation Yrotation Xrotation
						JOINT RightForeArm
						{
							OFFSET -5.450000 0.000000 0.000000
							CHANNELS 3 Zrotation Yrotation Xrotation
							JOINT RightHand
							{
								OFFSET -3.450000 0.000000 0.000000
								CHANNELS 3 Zrotation Yrotation Xrotation
								JOINT RightHandIndex1
								{
									OFFSET -0.750000 0.000000 0.000000
									CHANNELS 3 Zrotation Yrotation Xrotation
									End Site
									{
										OFFSET 0.000000 0.000000 0.000000
									}
								}
							}
						}
					}
				}
			}
		}
	}
}
MOTION
Frames: 4
Frame Time: 0.016667
-0.975100 17.168380 -3.402910 -5.067721 -4.131738 -2.248806 -15.469466 13.785047 2.918672 0.879514 -2.179975 -24.200217 7.596119 3.774308 31.433885 -0.212140 4.403109 2.763726 0.473770 0.502700 0.297340 17.842021 -10.700449 3.430758 2.032554 1.645881 -8.544002 15.792439 -6.809340 15.264649 -0.442969 -4.022598 2.900550 0.358150 -0.093200 0.032250 -2.444869 -2.396844 -8.166340 1.136617 2.540151 14.510220 3.137309 4.096798 14.640803 3.871929 -3.047094 -16.188804 -10.367525 7.988775 62.436701 0.118970 -0.082860 -4.900870 -25.075827 -32.456432 6.577575 -62.331509 -33.944263 7.053741 -20.924887 -21.174967 1.785792 -3.493140 3.310222 0.198750 -0.073280 0.145930 0.082620 19.456649 40.060713 10.489058 35.548710 49.366481 11.396370 7.089053 50.721237 5.873581 1.942254 -1.179520 0.020070 0.172710 -0.106550 -0.066820 
-0.957860 17.209690 -3.391140 -5.125906 -3.561882 -1.401786 -15.459861 13.853415 2.657678 1.647644 -1.574198 -20.501217 5.641887 3.752983 25.183716 -0.344811 3.683429 3.068981 0.465330 0.504220 0.268050 17.890152 -10.646709 3.393529 2.186929 1.550259 -9.111533 15.652063 -6.515201 14.021510 -0.393934 -3.916491 2.946612 0.382640 -0.035270 0.037670 -2.540778 -2.519512 -7.816129 1.079814 1.232235 12.458111 2.079436 2.895560 14.414681 4.091783 -3.807435 -13.652958 -11.484531 9.537793 59.128100 0.018940 0.974270 -4.973470 -21.992532 -29.523754 6.783340 -63.941777 -34.015250 8.213501 -23.415207 -26.236483 2.904078 -3.558192 3.329871 0.159730 -0.023570 0.102640 0.097830 15.733700 37.350672 7.221761 34.326978 46.845352 10.824202 11.457843 63.893731 9.346452 1.851205 -1.362328 0.000790 0.190610 -0.092720 -0.057650 
-0.941200 17.255050 -3.376300 -5.029929 -3.178207 -0.528183 -15.466270 13.827241 2.521931 2.343140 -1.177572 -17.658195 3.664197 3.813396 19.879242 -0.419524 3.288156 3.262281 0.454060 0.499100 0.235190 17.937293 -10.549180 3.324640 2.400390 1.369286 -9.323695 15.279507 -6.171949 12.691340 -0.343846 -3.820927 2.991127 0.405620 0.025590 0.042540 -2.611917 -2.628680 -7.534143 1.047803 0.143841 10.664623 0.928326 1.937574 14.459486 4.302903 -5.005545 -11.652252 -13.491202 11.085910 55.172942 -0.274370 1.529300 -4.994820 -19.420343 -26.276039 6.847142 -65.112802 -33.177273 8.891598 -25.820483 -31.330687 4.268789 -3.623341 3.346834 0.115480 0.026030 0.052980 0.112600 12.526748 34.526792 4.504607 30.935948 44.605271 9.908103 10.681750 75.899033 9.779193 1.789948 -1.498765 -0.018630 0.208710 -0.076480 -0.045370 
-0.908530 17.297920 -3.357440 -4.877782 -2.562594 0.201618 -15.482358 13.744604 2.482646 2.808997 -0.996024 -15.794794 1.977565 3.875443 15.926221 -0.440692 3.128346 3.364576 0.434070 0.479080 0.200740 17.972737 -10.456977 3.241452 2.430424 1.126242 -9.285029 14.642449 -5.783696 11.280512 -0.292098 -3.726215 3.038360 0.414210 0.080340 0.044040 -2.654265 -2.683170 -7.325903 1.172365 -0.436075 9.350349 0.581395 1.370441 14.440038 4.381986 -5.886915 -10.148943 -14.948929 11.723076 52.043580 -0.342670 1.405590 -4.611490 -16.928313 -23.238777 6.858141 -66.335206 -32.537905 9.969179 -30.367310 -35.991461 6.577145 -3.685696 3.381338 0.071210 0.067580 0.003740 0.123070 9.682499 31.693209 2.167847 25.289243 41.213702 6.173841 -17.541400 85.851332 -13.450134 1.632587 -1.107622 -0.034130 0.219450 -0.060870 -0.031000 
